<svg width="28" height="28" viewBox="0 0 28 28" fill="none" xmlns="http://www.w3.org/2000/svg">
<path d="M14.0004 28C6.26911 27.9991 -0.0113876 21.7146 1.55035e-05 13.9908C0.0114186 6.25298 6.30069 -0.0244872 14.0171 7.18159e-05C21.7546 0.0246308 27.9903 6.2635 28 13.9917C28.0105 21.7173 21.7309 28 13.9996 28H14.0004ZM14.0066 25.2099C20.1809 25.2003 25.2325 20.1394 25.2106 13.9856C25.1887 7.81248 20.1801 2.80682 14.011 2.79015C7.85239 2.77349 2.79466 7.82563 2.79028 13.997C2.78589 20.1613 7.84538 25.2187 14.0057 25.2099H14.0066Z" fill="black"/>
<path d="M12.6049 12.605C12.6049 12.4348 12.6049 12.3068 12.6049 12.1787C12.6057 10.8981 12.5979 9.61844 12.6119 8.33786C12.618 7.7388 13.0163 7.23885 13.5733 7.06255C14.1197 6.89063 14.7609 7.04676 15.0706 7.5204C15.2504 7.79669 15.3714 8.16069 15.3811 8.4896C15.4171 9.72545 15.3951 10.9622 15.3951 12.1989C15.3951 12.3173 15.3951 12.4357 15.3951 12.605C15.5513 12.605 15.6776 12.605 15.8039 12.605C17.0951 12.6068 18.3863 12.5953 19.6775 12.6146C20.3836 12.6252 20.9169 13.162 20.9976 13.8794C21.0695 14.5259 20.6309 15.1697 19.9801 15.3416C19.7932 15.3907 19.5906 15.3924 19.395 15.3933C18.0828 15.3977 16.7696 15.3951 15.3951 15.3951C15.3951 15.5389 15.3951 15.6635 15.3951 15.7889C15.3943 17.08 15.4048 18.3711 15.3872 19.6622C15.3776 20.3744 14.8557 20.9059 14.1364 20.9954C13.4934 21.0761 12.8443 20.6437 12.6636 19.9946C12.6145 19.8192 12.6084 19.628 12.6075 19.4438C12.6031 18.229 12.6049 17.0142 12.6049 15.8003C12.6049 15.6819 12.6049 15.5644 12.6049 15.396C12.4479 15.396 12.3207 15.396 12.1944 15.396C10.9032 15.3942 9.61199 15.4056 8.3208 15.3863C7.61556 15.3758 7.08137 14.8372 7.00154 14.1206C6.92962 13.4742 7.36908 12.8304 8.01993 12.6585C8.19624 12.612 8.38746 12.6085 8.57255 12.6076C9.77602 12.6032 10.9804 12.6059 12.1838 12.6059C12.3031 12.6059 12.4233 12.6059 12.6057 12.6059L12.6049 12.605Z" fill="black"/>
</svg>
