<svg width="11" height="11" viewBox="0 0 11 11" fill="none" xmlns="http://www.w3.org/2000/svg">
<path d="M0.5 10.5293C0.506219 10.5153 0.513994 10.5021 0.517881 10.4873C0.652378 9.94896 0.786097 9.40984 0.920594 8.8715C0.959465 8.71436 0.996782 8.55565 1.04032 8.40006C1.14527 8.02276 1.34352 7.70069 1.62029 7.42452C3.11685 5.92775 4.61342 4.43019 6.10921 2.93342C6.32378 2.71793 6.53836 2.50244 6.75371 2.28772C6.76692 2.2745 6.78014 2.26205 6.79025 2.25194C7.61122 3.07345 8.42908 3.89185 9.25161 4.71492C9.24073 4.72581 9.22596 4.74137 9.21118 4.75693C8.47184 5.49676 7.73328 6.23581 6.99393 6.97564C6.0198 7.95119 5.0449 8.92673 4.07077 9.90228C3.80489 10.1691 3.49313 10.3597 3.13162 10.464C2.93338 10.5208 2.73202 10.5667 2.53144 10.6172C2.04166 10.7401 1.55032 10.8592 1.06209 10.986C0.81564 11.0498 0.56686 10.8887 0.520991 10.653C0.518658 10.639 0.508552 10.6266 0.501555 10.6133C0.501555 10.5861 0.501555 10.5589 0.501555 10.5316L0.5 10.5293Z" fill="black"/>
<path d="M9.37522 0.5C9.41876 0.506224 9.4623 0.513225 9.50583 0.519449C10.2669 0.629917 10.8663 1.2126 10.9783 1.97343C11.0623 2.54756 10.9029 3.05323 10.4947 3.47176C10.3004 3.67092 10.1013 3.8654 9.90388 4.06222C9.89533 4.07078 9.886 4.07778 9.88056 4.08245C9.06036 3.26172 8.24172 2.44254 7.42152 1.6218C7.42386 1.61947 7.42852 1.61247 7.43396 1.60624C7.64232 1.39853 7.84756 1.18848 8.05902 0.984662C8.32646 0.726383 8.64676 0.572349 9.01449 0.519449C9.05958 0.513225 9.10545 0.506224 9.15054 0.5C9.22596 0.5 9.30059 0.5 9.376 0.5H9.37522Z" fill="black"/>
</svg>
