<svg width="12" height="12" viewBox="0 0 12 12" fill="none" xmlns="http://www.w3.org/2000/svg">
<path d="M0 11.4621C0.007108 11.4461 0.015993 11.4309 0.0204355 11.4141C0.174146 10.7988 0.326968 10.1827 0.480678 9.56743C0.525103 9.38783 0.567751 9.20646 0.617507 9.02864C0.737455 8.59744 0.964022 8.22936 1.28033 7.91373C2.99069 6.20314 4.70105 4.49165 6.41053 2.78105C6.65575 2.53478 6.90098 2.2885 7.14709 2.04311C7.1622 2.028 7.1773 2.01377 7.18885 2.00222C8.12711 2.94109 9.06181 3.8764 10.0018 4.81706C9.9894 4.8295 9.97252 4.84728 9.95564 4.86507C9.11068 5.71058 8.2666 6.55521 7.42164 7.40073C6.30835 8.51564 5.19417 9.63055 4.08088 10.7455C3.77701 11.0504 3.42072 11.2682 3.00757 11.3874C2.781 11.4523 2.55088 11.5047 2.32165 11.5625C1.76189 11.703 1.20036 11.839 0.642385 11.984C0.360731 12.0569 0.076411 11.8728 0.0239895 11.6034C0.021324 11.5874 0.0097735 11.5732 0.001777 11.5581C0.001777 11.527 0.001777 11.4959 0.001777 11.4647L0 11.4621Z" fill="black"/>
<path d="M10.1431 0C10.1929 0.00711267 10.2426 0.0151144 10.2924 0.0222271C11.1622 0.148477 11.8473 0.814401 11.9752 1.68392C12.0712 2.34007 11.889 2.91797 11.4226 3.3963C11.2004 3.62391 10.973 3.84618 10.7473 4.07111C10.7375 4.08089 10.7269 4.0889 10.7206 4.09423C9.78327 3.15625 8.84768 2.22004 7.91031 1.28206C7.91298 1.27939 7.91831 1.27139 7.92453 1.26428C8.16265 1.02689 8.39721 0.786839 8.63888 0.553899C8.94453 0.258723 9.31059 0.0826848 9.73085 0.0222271C9.78238 0.0151144 9.8348 0.00711267 9.88634 0C9.97252 0 10.0578 0 10.144 0H10.1431Z" fill="black"/>
</svg>
