<svg width="46" height="45" viewBox="0 0 46 45" fill="none" xmlns="http://www.w3.org/2000/svg">
<path d="M5.76492 39.3824C6.91342 39.3824 7.99967 39.3824 9.08593 39.3824C19.2554 39.3817 29.4242 39.3817 39.5937 39.378C40.3437 39.378 40.242 39.4693 40.2435 38.754C40.248 36.1796 40.2412 33.6051 40.2495 31.0314C40.2541 29.5896 41.181 28.4502 42.5382 28.1836C44.3221 27.8337 45.9829 29.1358 45.9928 30.9192C46.0065 33.4684 45.9966 36.0184 45.9958 38.5676C45.9958 39.7434 46.0034 40.9192 45.9883 42.095C45.9655 43.8383 44.773 44.9948 42.9891 44.9985C40.0674 45.0037 37.1456 44.9933 34.2239 44.9933C25.3957 44.9933 16.5675 44.9971 7.73931 44.9978C6.14598 44.9978 4.55265 44.9978 2.95932 44.9859C1.22632 44.9733 0.00495147 43.7685 0.00343329 42.0735C0.000396939 38.373 -0.0033985 34.6725 0.00571056 30.9719C0.009506 29.4923 1.07299 28.3455 2.58813 28.1434C3.92109 27.9652 5.25329 28.8424 5.6427 30.1772C5.72468 30.4579 5.75884 30.761 5.7596 31.0544C5.76871 33.6779 5.76567 36.3021 5.76643 38.9256C5.76643 39.0593 5.76643 39.193 5.76643 39.3831L5.76492 39.3824Z" fill="black"/>
<path d="M20.0259 9.67578C19.7936 9.91496 19.5674 10.1586 19.3291 10.3918C17.3797 12.3 15.4387 14.2164 13.4727 16.1082C12.6855 16.8659 11.7071 17.0649 10.6603 16.7515C9.61122 16.4373 8.94094 15.719 8.70259 14.671C8.47107 13.6519 8.7747 12.765 9.53075 12.0259C11.2304 10.3636 12.9277 8.69829 14.6273 7.03596C16.7208 4.98812 18.8144 2.94177 20.9095 0.89616C22.1316 -0.297482 23.8768 -0.301196 25.105 0.899874C28.9171 4.62639 32.7247 8.35661 36.5315 12.0876C37.6428 13.1772 37.6466 14.9606 36.5505 16.0362C35.4134 17.1518 33.647 17.1786 32.4962 16.0666C30.3913 14.0314 28.3023 11.9799 26.2087 9.93279C26.129 9.85479 26.0721 9.75452 26.0045 9.6639C25.9627 9.67875 25.921 9.69435 25.8785 9.70921C25.8785 9.83251 25.8785 9.95507 25.8785 10.0784C25.8785 16.9602 25.8823 23.842 25.8732 30.7239C25.8732 31.1138 25.8231 31.5223 25.6955 31.8893C25.25 33.175 23.9033 33.9356 22.5423 33.715C21.141 33.4885 20.1307 32.3394 20.1291 30.9363C20.1231 25.6759 20.1261 20.4156 20.1254 15.1552C20.1254 13.3488 20.1254 11.5431 20.1254 9.73669C20.092 9.71664 20.0586 9.69584 20.0252 9.67578H20.0259Z" fill="black"/>
</svg>
