<svg width="15" height="15" viewBox="0 0 15 15" fill="none" xmlns="http://www.w3.org/2000/svg">
<path d="M1.87986 13.1275C2.25437 13.1275 2.60859 13.1275 2.9628 13.1275C6.27895 13.1272 9.59484 13.1272 12.911 13.126C13.1555 13.126 13.1224 13.1564 13.1229 12.918C13.1244 12.0598 13.1221 11.2017 13.1249 10.3437C13.1263 9.86317 13.4286 9.48336 13.8712 9.39447C14.4528 9.27786 14.9944 9.71189 14.9977 10.3064C15.0021 11.1561 14.9989 12.0061 14.9986 12.8558C14.9986 13.2478 15.0011 13.6397 14.9962 14.0317C14.9887 14.6128 14.5999 14.9983 14.0182 14.9995C13.0654 15.0012 12.1127 14.9978 11.16 14.9978C8.28121 14.9978 5.40245 14.999 2.52369 14.9993C2.00412 14.9993 1.48456 14.9993 0.964997 14.9953C0.399889 14.9911 0.00161461 14.5895 0.00111955 14.0245C0.000129437 12.791 -0.00110821 11.5575 0.00186214 10.3239C0.00309978 9.83073 0.349888 9.44845 0.843955 9.3811C1.27862 9.32168 1.71303 9.61409 1.84001 10.059C1.86674 10.1526 1.87788 10.2536 1.87813 10.3514C1.8811 11.2259 1.88011 12.1007 1.88036 12.9752C1.88036 13.0197 1.88036 13.0643 1.88036 13.1277L1.87986 13.1275Z" fill="black"/>
<path d="M8.46859 8.02577C8.54433 7.94605 8.61809 7.86483 8.69582 7.78709C9.33147 7.15102 9.9644 6.51223 10.6055 5.8816C10.8622 5.62906 11.1813 5.5627 11.5226 5.66719C11.8647 5.77192 12.0833 6.01134 12.161 6.3607C12.2365 6.7004 12.1375 6.99603 11.8909 7.24238C11.3367 7.7965 10.7832 8.35161 10.229 8.90572C9.54633 9.58834 8.86364 10.2705 8.18046 10.9523C7.78194 11.3502 7.21287 11.3515 6.81237 10.9511C5.56928 9.70892 4.32768 8.4655 3.08632 7.22183C2.72394 6.85861 2.7227 6.26414 3.08013 5.90562C3.45093 5.53373 4.02693 5.52482 4.40218 5.89547C5.08858 6.57388 5.76978 7.25773 6.45246 7.9401C6.47846 7.9661 6.49702 7.99953 6.51905 8.02973C6.53266 8.02478 6.54628 8.01958 6.56014 8.01463C6.56014 7.97353 6.56014 7.93268 6.56014 7.89157C6.56014 5.59761 6.5589 3.30365 6.56187 1.00969C6.56187 0.8797 6.57821 0.743523 6.61979 0.621212C6.76509 0.192626 7.20421 -0.0609109 7.64803 0.0126246C8.10497 0.0881409 8.43443 0.47117 8.43492 0.938875C8.4369 2.69234 8.43591 4.4458 8.43616 6.19927C8.43616 6.80142 8.43616 7.40332 8.43616 8.00547C8.44705 8.01215 8.45794 8.01909 8.46883 8.02577H8.46859Z" fill="black"/>
</svg>
